<svg width="14" height="14" viewBox="0 0 14 14" fill="none" xmlns="http://www.w3.org/2000/svg"><path d="M14 1.5c0-.406-.156-.75-.438-1.063C13.25.157 12.906 0 12.5 0h-11C1.062 0 .719.156.437.438A1.416 1.416 0 000 1.5v11c0 .438.125.781.438 1.063.28.312.625.437 1.062.437h6.156V8.469H5.75V6.344h1.906V4.78c0-.875.219-1.531.719-2.031.5-.5 1.156-.75 2-.75.625 0 1.188.031 1.625.094v1.875h-1.125c-.406 0-.688.094-.844.281-.125.188-.187.438-.187.75v1.344H12l-.281 2.125H9.844V14H12.5c.406 0 .75-.125 1.063-.438.28-.28.437-.624.437-1.062v-11z" fill="#000"/></svg>