<?xml version="1.0" encoding="utf-8"?><svg width="14" height="14" fill="none" xmlns="http://www.w3.org/2000/svg" viewBox="0 0 14 14"><path d="M13 0c.25 0 .5.125.688.313C13.874.5 14 .75 14 1v12c0 .281-.125.531-.313.719A.97.97 0 0113 14H1a.99.99 0 01-.719-.281A.99.99 0 010 13V1a1.017 1.017 0 011-1h12zM4.219 12h.031V5.312H2.156V12H4.22zM3.187 4.406c.313 0 .594-.093.844-.343s.375-.532.375-.844c0-.313-.125-.594-.375-.844S3.5 2 3.188 2a1.07 1.07 0 00-.844.375c-.25.25-.344.531-.344.844 0 .312.094.594.344.844.219.25.5.343.844.343zM12 12V8.344c0-1.031-.156-1.781-.438-2.281-.406-.594-1.093-.907-2.03-.907-.5 0-.907.125-1.282.344-.313.188-.563.438-.688.719h-.03v-.907h-2V12h2.062V8.687c0-.5.062-.906.218-1.187.188-.344.532-.531 1.032-.531.469 0 .781.218.937.593.094.25.156.657.156 1.188V12H12z" fill="#000"/></svg>