<?xml version="1.0" encoding="utf-8"?><svg width="16" height="12" fill="none" xmlns="http://www.w3.org/2000/svg" viewBox="0 0 16 12"><path d="M15.678 1.758c.117.528.234 1.348.293 2.403L16 5.626l-.03 1.466c-.058 1.113-.175 1.904-.292 2.432a2.208 2.208 0 01-.528.879c-.264.264-.557.44-.908.527-.528.147-1.7.235-3.575.293L8 11.253l-2.667-.03c-1.875-.058-3.077-.146-3.575-.293a1.783 1.783 0 01-.908-.527 1.7 1.7 0 01-.528-.88C.176 8.997.088 8.206.03 7.093L0 5.626c0-.41 0-.908.03-1.465.058-1.055.146-1.875.292-2.403C.41 1.407.586 1.114.85.85c.234-.235.557-.41.908-.528.498-.117 1.7-.234 3.575-.293L8 0l2.667.03c1.875.058 3.047.175 3.575.292.351.118.644.293.908.528.235.264.41.557.528.908zM6.359 8.03l4.19-2.403-4.19-2.373v4.776z" fill="#000"/></svg>